<svg xmlns="http://www.w3.org/2000/svg"  viewBox="0 0 64 64" width="128px" height="128px" baseProfile="basic"><radialGradient id="Lg2lqQyquBI0K2yQveWgFa" cx="32.617" cy="370.106" r="19.295" gradientTransform="translate(0 -334)" gradientUnits="userSpaceOnUse"><stop offset="0" stop-color="#f3e6c4"/><stop offset=".219" stop-color="#f7ebcd"/><stop offset=".644" stop-color="#fcf2dc"/><stop offset="1" stop-color="#fff4e1"/></radialGradient><path fill="url(#Lg2lqQyquBI0K2yQveWgFa)" d="M60,34H43.17c-1.49,0-2.87-1-3.13-2.46C39.71,29.64,41.17,28,43,28h15 c2.47,0,4.45-2.29,3.91-4.86c-0.4-1.87-2.16-3.14-4.08-3.14H42.09c-0.88,0-1.73-0.52-1.99-1.36C39.67,17.26,40.68,16,42,16h14.38 c1.18,0,2.28-0.75,2.55-1.89C59.32,12.46,58.08,11,56.5,11h-7c-0.83,0-1.5-0.67-1.5-1.5S48.67,8,49.5,8h1.88 c1.18,0,2.28-0.75,2.55-1.89C54.32,4.46,53.08,3,51.5,3H12.62c-1.18,0-2.28,0.75-2.55,1.89C9.68,6.54,10.92,8,12.5,8h1.52 c0.89,0,1.74,0.53,1.99,1.37c0.41,1.38-0.6,2.63-1.9,2.63H8.17c-1.92,0-3.69,1.27-4.08,3.15C3.55,17.71,5.52,20,8,20h7 c1.1,0,2,0.9,2,2c0,0.55-0.22,1.05-0.59,1.41C16.05,23.78,15.55,24,15,24H5.5C4.12,24,3,25.12,3,26.5c0,0.69,0.28,1.32,0.73,1.77 C4.18,28.72,4.81,29,5.5,29H19c1.1,0,2,0.9,2,2c0,0.55-0.22,1.05-0.59,1.41C20.05,32.78,19.55,33,19,33H4.63 c-1.52,0-2.94,0.92-3.4,2.37C0.47,37.77,2.25,40,4.55,40h2.37c0.87,0,1.71,0.51,1.98,1.35C9.33,42.73,8.32,44,7,44H4.62 c-1.17,0-2.27,0.74-2.55,1.88C1.68,47.53,2.92,49,4.5,49h1.83c1.72,0,3.31,1.16,3.61,2.85C10.34,54.07,8.65,56,6.5,56H6.17H5.46 C4.1,56,3,57.1,3,58.46v0.08c0,0.84,0.42,1.57,1.05,2.02C4.45,60.83,4.94,61,5.46,61h51.08c0.53,0,1.02-0.17,1.42-0.45 c0.63-0.44,1.04-1.18,1.04-2.01v-0.08C59,57.1,57.9,56,56.54,56H55h-2c-0.55,0-1.05-0.22-1.41-0.59C51.22,55.05,51,54.55,51,54 c0-1.1,0.9-2,2-2h3.4c1.51,0,2.94-0.91,3.41-2.35C60.6,47.25,58.8,45,56.5,45H42.62c-1.18,0-2.28-0.75-2.55-1.89 C39.68,41.46,40.92,40,42.5,40h17.38c1.31,0,2.55-0.77,2.96-2.01C63.51,35.92,61.97,34,60,34z"/><linearGradient id="Lg2lqQyquBI0K2yQveWgFb" x1="20.777" x2="20.777" y1="1.8" y2="18.675" gradientUnits="userSpaceOnUse"><stop offset="0" stop-color="#4dd27f"/><stop offset="0" stop-color="#48c57c"/><stop offset="1" stop-color="#3eac75"/></linearGradient><path fill="url(#Lg2lqQyquBI0K2yQveWgFb)" d="M32,6.074 c-1.216,0.004-2.431,0.313-3.526,0.931l-15.807,8.924c-1.369,0.773-2.41,1.962-3.029,3.352l-0.005-0.003 c-0.008,0.018-0.014,0.036-0.021,0.054c-0.017,0.039-0.042,0.074-0.059,0.114c0.004,0.002,2.283,1.243,3.112,1.711l6.509,3.679 l9.276,5.243c0.385,0.218,0.789,0.384,1.2,0.525c0.762,0.263,1.556,0.394,2.351,0.394V6.074z"/><linearGradient id="Lg2lqQyquBI0K2yQveWgFc" x1="43.223" x2="43.223" y1="6.8" y2="29.211" gradientUnits="userSpaceOnUse"><stop offset="0" stop-color="#67da92"/><stop offset=".478" stop-color="#62cd8f"/><stop offset="1" stop-color="#5aba8a"/></linearGradient><path fill="url(#Lg2lqQyquBI0K2yQveWgFc)" d="M32,6.074 c1.216,0.004,2.431,0.313,3.526,0.931l15.807,8.924c1.369,0.773,2.41,1.962,3.029,3.352l0.005-0.003 c0.008,0.018,0.014,0.036,0.021,0.054c0.017,0.039,0.042,0.074,0.059,0.114c-0.004,0.002-0.008,0.005-0.012,0.007 c-0.994,0.575-2.271,1.236-3.1,1.704l-6.509,3.679l-9.276,5.243c-0.385,0.218-0.789,0.384-1.2,0.525 c-0.762,0.263-1.556,0.394-2.351,0.394V6.074z"/><linearGradient id="Lg2lqQyquBI0K2yQveWgFd" x1="54.733" x2="54.733" y1="591.927" y2="506.446" gradientTransform="translate(0 -534)" gradientUnits="userSpaceOnUse"><stop offset="0" stop-color="#ffb460"/><stop offset=".612" stop-color="#ffc75d"/><stop offset="1" stop-color="#ffe556"/></linearGradient><path fill="url(#Lg2lqQyquBI0K2yQveWgFd)" d="M54.676,20.106 c0.043,0.139,0.08,0.281,0.115,0.423C54.756,20.387,54.719,20.246,54.676,20.106z"/><linearGradient id="Lg2lqQyquBI0K2yQveWgFe" x1="54.915" x2="54.915" y1="591.927" y2="506.446" gradientTransform="translate(0 -534)" gradientUnits="userSpaceOnUse"><stop offset="0" stop-color="#ffb460"/><stop offset=".612" stop-color="#ffc75d"/><stop offset="1" stop-color="#ffe556"/></linearGradient><path fill="url(#Lg2lqQyquBI0K2yQveWgFe)" d="M54.888,21.007 c0.019,0.113,0.041,0.225,0.055,0.339C54.929,21.232,54.907,21.12,54.888,21.007z"/><linearGradient id="Lg2lqQyquBI0K2yQveWgFf" x1="9.271" x2="9.271" y1="591.927" y2="506.446" gradientTransform="translate(0 -534)" gradientUnits="userSpaceOnUse"><stop offset="0" stop-color="#ffb460"/><stop offset=".612" stop-color="#ffc75d"/><stop offset="1" stop-color="#ffe556"/></linearGradient><path fill="url(#Lg2lqQyquBI0K2yQveWgFf)" d="M9.208,20.539 c0.037-0.153,0.077-0.304,0.124-0.453C9.286,20.235,9.245,20.386,9.208,20.539z"/><linearGradient id="Lg2lqQyquBI0K2yQveWgFg" x1="29.811" x2="29.811" y1="591.927" y2="506.446" gradientTransform="translate(0 -534)" gradientUnits="userSpaceOnUse"><stop offset="0" stop-color="#ffb460"/><stop offset=".612" stop-color="#ffc75d"/><stop offset="1" stop-color="#ffe556"/></linearGradient><path fill="url(#Lg2lqQyquBI0K2yQveWgFg)" d="M30.326,57.722 c-0.348-0.083-0.693-0.185-1.029-0.32C29.633,57.538,29.977,57.639,30.326,57.722z"/><linearGradient id="Lg2lqQyquBI0K2yQveWgFh" x1="9.087" x2="9.087" y1="591.927" y2="506.446" gradientTransform="translate(0 -534)" gradientUnits="userSpaceOnUse"><stop offset="0" stop-color="#ffb460"/><stop offset=".612" stop-color="#ffc75d"/><stop offset="1" stop-color="#ffe556"/></linearGradient><path fill="url(#Lg2lqQyquBI0K2yQveWgFh)" d="M9.058,21.349 c0.015-0.12,0.038-0.238,0.058-0.356C9.096,21.112,9.072,21.229,9.058,21.349z"/><linearGradient id="Lg2lqQyquBI0K2yQveWgFi" x1="31.973" x2="31.973" y1="591.927" y2="564.089" gradientTransform="translate(0 -534)" gradientUnits="userSpaceOnUse"><stop offset="0" stop-color="#ffb460"/><stop offset=".612" stop-color="#ffc75d"/><stop offset="1" stop-color="#ffe556"/></linearGradient><path fill="url(#Lg2lqQyquBI0K2yQveWgFi)" d="M32,57.927 c-0.018,0-0.036-0.003-0.055-0.003C31.963,57.924,31.982,57.927,32,57.927z"/><linearGradient id="Lg2lqQyquBI0K2yQveWgFj" x1="54.47" x2="54.47" y1="591.927" y2="506.446" gradientTransform="translate(0 -534)" gradientUnits="userSpaceOnUse"><stop offset="0" stop-color="#ffb460"/><stop offset=".612" stop-color="#ffc75d"/><stop offset="1" stop-color="#ffe556"/></linearGradient><path fill="url(#Lg2lqQyquBI0K2yQveWgFj)" d="M54.38,19.299 c0.068,0.153,0.123,0.312,0.18,0.47C54.503,19.61,54.447,19.452,54.38,19.299z"/><linearGradient id="Lg2lqQyquBI0K2yQveWgFk" x1="54.378" x2="54.378" y1="565.264" y2="541.338" gradientTransform="translate(0 -534)" gradientUnits="userSpaceOnUse"><stop offset="0" stop-color="#ffb460"/><stop offset=".612" stop-color="#ffc75d"/><stop offset="1" stop-color="#ffe556"/></linearGradient><polygon fill="url(#Lg2lqQyquBI0K2yQveWgFk)" points="54.376,19.301 54.38,19.299 54.379,19.298"/><linearGradient id="Lg2lqQyquBI0K2yQveWgFl" x1="54.839" x2="54.839" y1="59.223" y2="-6.592" gradientUnits="userSpaceOnUse"><stop offset="0" stop-color="#fd6054"/><stop offset=".204" stop-color="#fc6267"/><stop offset=".521" stop-color="#f96480"/><stop offset=".794" stop-color="#f76690"/><stop offset=".989" stop-color="#f76796"/><stop offset="1" stop-color="#f76796"/></linearGradient><path fill="url(#Lg2lqQyquBI0K2yQveWgFl)" d="M54.791,20.53 c0.038,0.158,0.07,0.317,0.097,0.478C54.86,20.846,54.829,20.687,54.791,20.53z"/><linearGradient id="Lg2lqQyquBI0K2yQveWgFm" x1="54.971" x2="54.971" y1="59.223" y2="-6.592" gradientUnits="userSpaceOnUse"><stop offset="0" stop-color="#fd6054"/><stop offset=".204" stop-color="#fc6267"/><stop offset=".521" stop-color="#f96480"/><stop offset=".794" stop-color="#f76690"/><stop offset=".989" stop-color="#f76796"/><stop offset="1" stop-color="#f76796"/></linearGradient><path fill="url(#Lg2lqQyquBI0K2yQveWgFm)" d="M54.942,21.346 C54.977,21.63,55,21.917,55,22.207C55,21.917,54.977,21.63,54.942,21.346z"/><linearGradient id="Lg2lqQyquBI0K2yQveWgFn" x1="54.618" x2="54.618" y1="59.223" y2="-6.592" gradientUnits="userSpaceOnUse"><stop offset="0" stop-color="#fd6054"/><stop offset=".204" stop-color="#fc6267"/><stop offset=".521" stop-color="#f96480"/><stop offset=".794" stop-color="#f76690"/><stop offset=".989" stop-color="#f76796"/><stop offset="1" stop-color="#f76796"/></linearGradient><path fill="url(#Lg2lqQyquBI0K2yQveWgFn)" d="M54.56,19.768 c0.04,0.112,0.082,0.224,0.116,0.338C54.641,19.992,54.6,19.88,54.56,19.768z"/><linearGradient id="Lg2lqQyquBI0K2yQveWgFo" x1="43.5" x2="43.5" y1="591.927" y2="506.446" gradientTransform="translate(0 -534)" gradientUnits="userSpaceOnUse"><stop offset="0" stop-color="#006ab9"/><stop offset=".586" stop-color="#37a0d2"/></linearGradient><path fill="url(#Lg2lqQyquBI0K2yQveWgFo)" d="M51.335,21.157l-6.506,3.677 c0.108,0.341,0.171,0.7,0.171,1.068v12.19c0,1.28-0.689,2.462-1.804,3.092l-9.448,5.341c-0.542,0.306-1.145,0.46-1.748,0.46v10.942 c1.224,0,2.449-0.311,3.55-0.934l15.785-8.922C53.6,46.791,55,44.392,55,41.79V22.207c0-0.291-0.023-0.577-0.058-0.862 c-0.014-0.114-0.035-0.226-0.055-0.339c-0.027-0.161-0.059-0.32-0.097-0.478c-0.035-0.142-0.072-0.284-0.115-0.423 c-0.035-0.114-0.076-0.226-0.116-0.338c-0.057-0.158-0.112-0.316-0.18-0.47v0l-0.004,0.002 C53.344,20.044,52.039,20.759,51.335,21.157z"/><linearGradient id="Lg2lqQyquBI0K2yQveWgFp" x1="9.029" x2="9.029" y1="57.927" y2="-5.786" gradientUnits="userSpaceOnUse"><stop offset="0" stop-color="#ffb460"/><stop offset=".612" stop-color="#ffc75d"/><stop offset="1" stop-color="#ffe556"/></linearGradient><path fill="url(#Lg2lqQyquBI0K2yQveWgFp)" d="M9,22.212 c0-0.291,0.023-0.578,0.058-0.863C9.023,21.634,9,21.921,9,22.212z"/><linearGradient id="Lg2lqQyquBI0K2yQveWgFq" x1="9.162" x2="9.162" y1="57.927" y2="-5.786" gradientUnits="userSpaceOnUse"><stop offset="0" stop-color="#ffb460"/><stop offset=".612" stop-color="#ffc75d"/><stop offset="1" stop-color="#ffe556"/></linearGradient><path fill="url(#Lg2lqQyquBI0K2yQveWgFq)" d="M9.116,20.993 c0.026-0.153,0.056-0.304,0.092-0.455C9.172,20.689,9.143,20.841,9.116,20.993z"/><linearGradient id="Lg2lqQyquBI0K2yQveWgFr" x1="31.135" x2="31.135" y1="57.927" y2="-5.786" gradientUnits="userSpaceOnUse"><stop offset="0" stop-color="#ffb460"/><stop offset=".612" stop-color="#ffc75d"/><stop offset="1" stop-color="#ffe556"/></linearGradient><path fill="url(#Lg2lqQyquBI0K2yQveWgFr)" d="M31.945,57.924 c-0.544-0.004-1.087-0.074-1.62-0.202C30.858,57.849,31.401,57.92,31.945,57.924z"/><linearGradient id="Lg2lqQyquBI0K2yQveWgFs" x1="9.384" x2="9.384" y1="57.927" y2="-5.786" gradientUnits="userSpaceOnUse"><stop offset="0" stop-color="#ffb460"/><stop offset=".612" stop-color="#ffc75d"/><stop offset="1" stop-color="#ffe556"/></linearGradient><path fill="url(#Lg2lqQyquBI0K2yQveWgFs)" d="M9.333,20.086 c0.031-0.1,0.067-0.198,0.102-0.296C9.399,19.888,9.364,19.986,9.333,20.086z"/><linearGradient id="Lg2lqQyquBI0K2yQveWgFt" x1="14.392" x2="14.392" y1="591.927" y2="506.446" gradientTransform="translate(0 -534)" gradientUnits="userSpaceOnUse"><stop offset="0" stop-color="#ffb460"/><stop offset=".612" stop-color="#ffc75d"/><stop offset="1" stop-color="#ffe556"/></linearGradient><path fill="url(#Lg2lqQyquBI0K2yQveWgFt)" d="M9.633,19.278 c-0.025,0.057-0.044,0.117-0.068,0.175c0.994,0.575,2.271,1.236,3.1,1.704l6.509,3.679c0.014-0.045,0.03-0.089,0.046-0.133 L9.633,19.278z"/><linearGradient id="Lg2lqQyquBI0K2yQveWgFu" x1="38.5" x2="38.5" y1="591.927" y2="506.446" gradientTransform="translate(0 -534)" gradientUnits="userSpaceOnUse"><stop offset="0" stop-color="#ffb460"/><stop offset=".612" stop-color="#ffc75d"/><stop offset="1" stop-color="#ffe556"/></linearGradient><path fill="url(#Lg2lqQyquBI0K2yQveWgFu)" d="M34.363,30.6L32,31.934v15.051 c0.603,0,1.205-0.153,1.748-0.46l9.448-5.341C44.311,40.555,45,39.373,45,38.093v-12.19c0-0.369-0.063-0.727-0.171-1.068 l-9.279,5.244C35.169,30.294,34.769,30.459,34.363,30.6z"/><linearGradient id="Lg2lqQyquBI0K2yQveWgFv" x1="38.5" x2="38.5" y1="59.223" y2="-6.592" gradientUnits="userSpaceOnUse"><stop offset="0" stop-color="#fd6054"/><stop offset=".204" stop-color="#fc6267"/><stop offset=".521" stop-color="#f96480"/><stop offset=".794" stop-color="#f76690"/><stop offset=".989" stop-color="#f76796"/><stop offset="1" stop-color="#f76796"/></linearGradient><path fill="url(#Lg2lqQyquBI0K2yQveWgFv)" d="M34.363,30.6L32,31.934v15.051 c0.603,0,1.205-0.153,1.748-0.46l9.448-5.341C44.311,40.555,45,39.373,45,38.093v-12.19c0-0.369-0.063-0.727-0.171-1.068 l-9.279,5.244C35.169,30.294,34.769,30.459,34.363,30.6z"/><linearGradient id="Lg2lqQyquBI0K2yQveWgFw" x1="25.5" x2="25.5" y1="591.927" y2="506.446" gradientTransform="translate(0 -534)" gradientUnits="userSpaceOnUse"><stop offset="0" stop-color="#ffb460"/><stop offset=".612" stop-color="#ffc75d"/><stop offset="1" stop-color="#ffe556"/></linearGradient><path fill="url(#Lg2lqQyquBI0K2yQveWgFw)" d="M29.649,30.604 c-0.41-0.142-0.814-0.307-1.2-0.525l-9.276-5.243C19.064,25.179,19,25.54,19,25.911v12.182c0,1.281,0.689,2.462,1.804,3.092 l9.448,5.34c0.542,0.306,1.145,0.46,1.748,0.46V31.934L29.649,30.604z"/><linearGradient id="Lg2lqQyquBI0K2yQveWgFx" x1="25.5" x2="25.5" y1="57.927" y2="-5.786" gradientUnits="userSpaceOnUse"><stop offset="0" stop-color="#ffb460"/><stop offset=".612" stop-color="#ffc75d"/><stop offset="1" stop-color="#ffe556"/></linearGradient><path fill="url(#Lg2lqQyquBI0K2yQveWgFx)" d="M29.649,30.604 c-0.41-0.142-0.814-0.307-1.2-0.525l-9.276-5.243C19.064,25.179,19,25.54,19,25.911v12.182c0,1.281,0.689,2.462,1.804,3.092 l9.448,5.34c0.542,0.306,1.145,0.46,1.748,0.46V31.934L29.649,30.604z"/><linearGradient id="Lg2lqQyquBI0K2yQveWgFy" x1="38.5" x2="38.5" y1="29" y2="44.289" gradientUnits="userSpaceOnUse"><stop offset="0" stop-color="#fff"/><stop offset=".477" stop-color="#e5e5e5"/><stop offset="1" stop-color="#cccccd"/></linearGradient><path fill="url(#Lg2lqQyquBI0K2yQveWgFy)" d="M32,31.934v15.051 c0.603,0,1.205-0.153,1.748-0.46l9.448-5.341C44.311,40.555,45,39.373,45,38.093v-12.19c0-0.369-0.063-0.727-0.171-1.068L32,31.934 z"/><linearGradient id="Lg2lqQyquBI0K2yQveWgFz" x1="25.5" x2="25.5" y1="580.985" y2="531.58" gradientTransform="translate(0 -534)" gradientUnits="userSpaceOnUse"><stop offset="0" stop-color="#fff"/><stop offset=".477" stop-color="#e5e5e5"/><stop offset="1" stop-color="#cccccd"/></linearGradient><path fill="url(#Lg2lqQyquBI0K2yQveWgFz)" d="M19.174,24.836 C19.064,25.179,19,25.54,19,25.911v12.182c0,1.281,0.689,2.462,1.804,3.092l9.448,5.34c0.542,0.306,1.145,0.46,1.748,0.46V31.934 L19.174,24.836z"/><linearGradient id="Lg2lqQyquBI0K2yQveWgFA" x1="20.5" x2="20.5" y1="37.541" y2="19.105" gradientUnits="userSpaceOnUse"><stop offset="0" stop-color="#c71616"/><stop offset=".295" stop-color="#c91919"/><stop offset=".498" stop-color="#cf2122"/><stop offset=".673" stop-color="#d92f31"/><stop offset=".832" stop-color="#e74447"/><stop offset=".98" stop-color="#f95e63"/><stop offset="1" stop-color="#fc6267"/></linearGradient><path fill="url(#Lg2lqQyquBI0K2yQveWgFA)" d="M30.252,46.525l-9.448-5.34 C19.689,40.555,19,39.374,19,38.093V25.911c0-0.371,0.064-0.732,0.174-1.075c0.014-0.045,0.03-0.089,0.046-0.133l-9.587-5.425 c-0.025,0.057-0.044,0.117-0.068,0.175c-0.004-0.002-0.008-0.005-0.012-0.007c-0.046,0.112-0.078,0.23-0.119,0.344 c-0.035,0.098-0.071,0.196-0.102,0.296c-0.047,0.149-0.087,0.301-0.124,0.453c-0.036,0.15-0.066,0.302-0.092,0.455 c-0.021,0.118-0.044,0.236-0.058,0.356C9.023,21.634,9,21.921,9,22.212V41.79c0,2.601,1.4,5.001,3.665,6.281l15.785,8.922 c0.275,0.156,0.558,0.292,0.847,0.409c0.336,0.136,0.68,0.237,1.029,0.32c0.533,0.127,1.075,0.197,1.62,0.202 c0.018,0,0.036,0.003,0.055,0.003h0V46.985C31.397,46.985,30.795,46.832,30.252,46.525z"/><linearGradient id="Lg2lqQyquBI0K2yQveWgFB" x1="21.018" x2="21.018" y1="59.169" y2="-65.77" gradientUnits="userSpaceOnUse"><stop offset="0" stop-color="#fd6054"/><stop offset=".204" stop-color="#fc6267"/><stop offset=".521" stop-color="#f96480"/><stop offset=".794" stop-color="#f76690"/><stop offset=".989" stop-color="#f76796"/><stop offset="1" stop-color="#f76796"/></linearGradient><path fill="url(#Lg2lqQyquBI0K2yQveWgFB)" d="M29.297,57.402 c0.336,0.136,0.68,0.237,1.029,0.32c0.533,0.127,1.075,0.197,1.62,0.202c0.018,0,0.036,0.003,0.055,0.003h0V46.985 c-0.603,0-1.205-0.153-1.748-0.46l-9.448-5.34c-0.518-0.293-0.938-0.707-1.246-1.192l-9.522,5.513 c0.631,1.049,1.525,1.942,2.628,2.566l15.785,8.922C28.725,57.149,29.008,57.285,29.297,57.402z"/><linearGradient id="Lg2lqQyquBI0K2yQveWgFC" x1="43.009" x2="43.009" y1="78.4" y2="47.607" gradientUnits="userSpaceOnUse"><stop offset="0" stop-color="#006ab9"/><stop offset="1" stop-color="#37a0d2"/></linearGradient><path fill="url(#Lg2lqQyquBI0K2yQveWgFC)" d="M54.018,45.425 c-2.88-1.667-6.222-3.621-9.487-5.571c-0.312,0.546-0.767,1.01-1.334,1.331l-9.448,5.341c-0.542,0.306-1.145,0.46-1.748,0.46 v10.942c1.224,0,2.449-0.311,3.55-0.934l15.785-8.922C52.468,47.431,53.384,46.511,54.018,45.425z"/><linearGradient id="Lg2lqQyquBI0K2yQveWgFD" x1="32.002" x2="32.002" y1="13.2" y2="30.13" gradientUnits="userSpaceOnUse"><stop offset="0" stop-color="#fff"/><stop offset=".477" stop-color="#e5e5e5"/><stop offset="1" stop-color="#cccccd"/></linearGradient><path fill="url(#Lg2lqQyquBI0K2yQveWgFD)" d="M44.788,24.714 c-0.282-0.793-0.835-1.476-1.59-1.903l-9.43-5.336c-1.084-0.613-2.41-0.614-3.495-0.002l-9.467,5.345 c-0.75,0.423-1.301,1.099-1.586,1.884c-0.016,0.044-0.032,0.088-0.046,0.133L32,31.934l12.829-7.1 C44.816,24.794,44.802,24.754,44.788,24.714z"/></svg>